<svg width="179" height="50" viewBox="0 0 179 50" fill="none" xmlns="http://www.w3.org/2000/svg">
<path d="M19.8942 17.2129C21.0987 16.1522 22.2105 15.0914 23.4151 14.1271C22.4885 13.4521 21.6546 12.8735 20.8208 12.2949C19.8016 13.1628 18.7824 14.1271 17.7632 15.0914C18.7824 15.4772 19.5235 16.2487 19.8942 17.2129Z" fill="#29ABE2"/>
<path d="M16.9345 22.142C19.1642 22.1481 20.9763 20.318 20.9822 18.0545C20.988 15.7911 19.1854 13.9514 16.9557 13.9453C14.7261 13.9393 12.9139 15.7694 12.9081 18.0328C12.9022 20.2962 14.7049 22.136 16.9345 22.142Z" fill="#29ABE2"/>
<path d="M20.5034 40.8818C14.7774 44.0607 9.82763 44.8555 7.59541 42.6699C4.48971 39.5903 7.30425 31.5436 14.098 23.3977C13.0304 23.0997 12.1569 22.3049 11.6716 21.3115C1.77222 32.6364 -2.69221 44.0607 1.67517 48.3324C5.26614 51.9088 13.9038 49.5245 23.4151 43.1667C22.4446 42.4713 21.4739 41.6765 20.5034 40.8818Z" fill="#29ABE2"/>
<path d="M27.0349 13.7374C27.3251 12.6476 28.0993 11.756 29.067 11.2606C17.6482 1.65085 6.03567 -2.60914 1.68101 1.65085C-1.89949 5.21736 0.422995 13.6383 6.9066 22.9508C7.68076 21.9601 8.45492 21.0684 9.22909 20.0778C6.03567 14.4308 5.16474 9.57641 7.39045 7.29782C10.5839 4.22666 18.7126 7.09968 27.0349 13.7374Z" fill="#29ABE2"/>
<path d="M35.2707 16.3936C34.8938 17.3871 34.046 18.1818 33.1041 18.5793C34.5171 20.0696 35.8358 21.4605 36.9662 22.9509C37.6257 22.0567 38.285 21.1625 38.7559 20.2683C37.7197 18.9767 36.4953 17.6851 35.2707 16.3936Z" fill="#29ABE2"/>
<path d="M32.2966 20.4916C34.5499 20.4916 36.3337 18.6924 36.3337 16.3933C36.3337 14.0942 34.5499 12.2949 32.2966 12.2949C30.0433 12.2949 28.2595 14.0942 28.2595 16.3933C28.2595 18.5924 30.0433 20.4916 32.2966 20.4916Z" fill="#29ABE2"/>
<path d="M43.3364 7.35375C46.4549 10.4299 43.6288 18.4676 36.8074 26.6046C37.8792 26.9024 38.7563 27.6962 39.2435 28.6886C49.086 17.3762 53.5687 5.86529 49.1834 1.59834C45.5778 -1.87476 36.9047 0.506792 27.4521 6.85761C28.4266 7.55222 29.4012 8.34607 30.3756 9.13992C36.1251 5.96451 41.0951 5.17067 43.3364 7.35375Z" fill="#29ABE2"/>
<path d="M31.6968 31.9673C30.3126 33.3523 28.8363 34.6383 27.4521 35.8254C28.3749 36.5179 29.2054 37.1115 30.1281 37.705C31.42 36.6168 32.6196 35.4297 33.9114 34.1436C32.8964 33.7479 32.1581 32.9565 31.6968 31.9673Z" fill="#29ABE2"/>
<path d="M34.7411 27.8574C32.5115 27.8511 30.6991 29.681 30.6929 31.9444C30.6869 34.2078 32.4894 36.0478 34.719 36.0541C36.9486 36.0603 38.7609 34.2306 38.7671 31.9672C38.7732 29.7036 36.9707 27.8636 34.7411 27.8574Z" fill="#29ABE2"/>
<path d="M17.7631 31.4209C16.3501 29.9305 15.0313 28.5396 13.901 27.0493C13.2416 27.9435 12.5822 28.8376 12.1112 29.7318C13.2416 31.0234 14.372 32.3151 15.5966 33.6067C15.9734 32.6131 16.727 31.8183 17.7631 31.4209Z" fill="#29ABE2"/>
<path d="M43.9836 27.0493C43.212 28.0364 42.4404 28.9248 41.6687 29.9121C44.8516 35.5388 45.7196 40.2772 43.4049 42.5476C40.222 45.6079 32.1203 42.7451 23.8257 36.2298C23.5363 37.3158 22.7647 38.2042 21.8003 38.6977C33.2776 48.2731 44.8516 52.6167 49.1919 48.3718C52.7604 44.7194 50.4457 36.2298 43.9836 27.0493Z" fill="#29ABE2"/>
<path d="M22.6182 33.6283C22.624 31.3648 20.8213 29.5251 18.5917 29.5191C16.362 29.5131 14.5499 31.3431 14.5441 33.6067C14.5383 35.8701 16.3409 37.7098 18.5705 37.7158C20.8001 37.7217 22.6124 35.8917 22.6182 33.6283Z" fill="#29ABE2"/>
<path d="M73.0746 36.0654C76.3825 36.0654 78.5685 34.8879 80.5533 33.0335C80.7546 32.8568 80.9272 32.5625 80.9272 32.2093C80.9272 31.6205 80.4095 31.0907 79.8342 31.0907C79.5466 31.0907 79.2876 31.2379 79.115 31.4144C77.3892 33.0335 75.6346 33.9165 73.1321 33.9165C68.7025 33.9165 65.3371 30.1782 65.3371 25.4096C65.3371 20.6115 68.6737 16.9027 73.1321 16.9027C75.6059 16.9027 77.3604 17.8446 78.9137 19.2576C79.0863 19.3752 79.3451 19.5225 79.6616 19.5225C80.2656 19.5225 80.8121 18.9926 80.8121 18.3744C80.8121 17.9623 80.582 17.6385 80.3518 17.4325C78.4822 15.843 76.4112 14.7539 73.1609 14.7539C67.2355 14.7539 62.9784 19.5813 62.9784 25.4096C62.9784 31.3851 67.2643 36.0654 73.0746 36.0654ZM93.8709 36.0654C87.7442 36.0654 83.631 31.1496 83.631 25.4685V25.4096C83.631 19.7285 87.8017 14.7539 93.9285 14.7539C100.055 14.7539 104.168 19.6697 104.168 25.3507V25.4096C104.168 31.0907 99.9976 36.0654 93.8709 36.0654ZM93.9285 33.9165C98.5308 33.9165 101.81 30.1488 101.81 25.4685V25.4096C101.81 20.7293 98.4732 16.9027 93.8709 16.9027C89.2687 16.9027 85.9896 20.6705 85.9896 25.3507V25.4096C85.9896 30.0898 89.3263 33.9165 93.9285 33.9165ZM115.732 36.0064C119.73 36.0064 122.606 33.7105 122.606 30.1782V30.1193C122.606 26.9697 120.535 25.2918 116.048 24.291C111.618 23.3197 110.583 22.2305 110.583 20.2877V20.2289C110.583 18.3744 112.251 16.9027 114.869 16.9027C116.738 16.9027 118.378 17.4325 120.075 18.6982C120.276 18.8455 120.478 18.9043 120.736 18.9043C121.341 18.9043 121.829 18.4039 121.829 17.7857C121.829 17.3442 121.571 17.0205 121.341 16.8438C119.5 15.4898 117.572 14.8127 114.926 14.8127C111.101 14.8127 108.311 17.1971 108.311 20.435V20.4938C108.311 23.8789 110.439 25.4096 115.07 26.4398C119.298 27.3523 120.305 28.4415 120.305 30.3548V30.4136C120.305 32.4447 118.522 33.9165 115.818 33.9165C113.258 33.9165 111.359 33.1218 109.461 31.4734C109.317 31.3261 109.058 31.2084 108.771 31.2084C108.167 31.2084 107.678 31.7089 107.678 32.3564C107.678 32.739 107.85 33.0629 108.109 33.2396C110.353 35.0646 112.798 36.0064 115.732 36.0064ZM127.237 34.7113C127.237 35.3589 127.726 35.8593 128.33 35.8593C128.963 35.8593 129.452 35.3589 129.452 34.7113V19.3459L135.866 29.0007C136.125 29.3834 136.442 29.5894 136.845 29.5894C137.247 29.5894 137.534 29.3834 137.793 29.0007L144.237 19.3164V34.6818C144.237 35.3 144.754 35.8593 145.387 35.8593C145.991 35.8593 146.509 35.3294 146.509 34.6818V16.1668C146.509 15.5486 145.991 15.0188 145.387 15.0188H145.129C144.668 15.0188 144.295 15.2543 144.064 15.6369L136.874 26.7048L129.682 15.6369C129.452 15.2838 129.107 15.0188 128.618 15.0188H128.359C127.755 15.0188 127.237 15.5486 127.237 16.1668V34.7113ZM152.405 34.6818C152.405 35.3294 152.924 35.8593 153.528 35.8593C154.161 35.8593 154.678 35.3294 154.678 34.6818V16.1373C154.678 15.4898 154.161 14.96 153.528 14.96C152.924 14.96 152.405 15.4898 152.405 16.1373V34.6818ZM169.779 36.0654C173.087 36.0654 175.272 34.8879 177.258 33.0335C177.459 32.8568 177.632 32.5625 177.632 32.2093C177.632 31.6205 177.114 31.0907 176.538 31.0907C176.251 31.0907 175.992 31.2379 175.82 31.4144C174.093 33.0335 172.339 33.9165 169.837 33.9165C165.407 33.9165 162.042 30.1782 162.042 25.4096V25.3507C162.042 20.6115 165.378 16.9027 169.837 16.9027C172.311 16.9027 174.064 17.8446 175.618 19.2576C175.791 19.3752 176.05 19.5225 176.366 19.5225C176.97 19.5225 177.517 18.9926 177.517 18.3744C177.517 17.9623 177.287 17.6385 177.057 17.4325C175.187 15.843 173.116 14.7539 169.866 14.7539C163.939 14.7539 159.683 19.5813 159.683 25.4096V25.4685C159.683 31.3851 163.968 36.0654 169.779 36.0654Z" fill="#42515A" stroke="#42515A" stroke-width="0.871426"/>
</svg>
