<svg width="148" height="50" viewBox="0 0 148 50" fill="none" xmlns="http://www.w3.org/2000/svg">
<path d="M62.9076 25.6413C62.9076 32.5815 57.4781 37.6955 50.8152 37.6955C44.152 37.6955 38.7225 32.5815 38.7225 25.6413C38.7225 18.6521 44.152 13.5869 50.8152 13.5869C57.4781 13.5869 62.9076 18.6521 62.9076 25.6413ZM57.6138 25.6413C57.6138 21.3043 54.4673 18.3369 50.8152 18.3369C47.1628 18.3369 44.0163 21.3043 44.0163 25.6413C44.0163 29.9347 47.1628 32.9456 50.8152 32.9456C54.4673 32.9456 57.6138 29.9293 57.6138 25.6413Z" fill="#EA4335"/>
<path d="M88.9948 25.6413C88.9948 32.5815 83.5653 37.6955 76.9021 37.6955C70.2392 37.6955 64.8097 32.5815 64.8097 25.6413C64.8097 18.6575 70.2392 13.5869 76.9021 13.5869C83.5653 13.5869 88.9948 18.6521 88.9948 25.6413ZM83.701 25.6413C83.701 21.3043 80.5545 18.3369 76.9021 18.3369C73.25 18.3369 70.1034 21.3043 70.1034 25.6413C70.1034 29.9347 73.25 32.9456 76.9021 32.9456C80.5545 32.9456 83.701 29.9293 83.701 25.6413Z" fill="#FBBC05"/>
<path d="M113.994 14.3152V35.9566C113.994 44.8586 108.744 48.4944 102.538 48.4944C96.6955 48.4944 93.1791 44.5868 91.8531 41.3913L96.4618 39.4729C97.2826 41.4347 99.2934 43.75 102.533 43.75C106.505 43.75 108.967 41.2989 108.967 36.6847V34.951H108.783C107.598 36.4128 105.315 37.6902 102.435 37.6902C96.4076 37.6902 90.8857 32.4402 90.8857 25.6847C90.8857 18.8804 96.4076 13.5869 102.435 13.5869C105.31 13.5869 107.592 14.8641 108.783 16.2825H108.967V14.3206H113.994V14.3152ZM109.342 25.6847C109.342 21.4402 106.511 18.3369 102.908 18.3369C99.2552 18.3369 96.1955 21.4402 96.1955 25.6847C96.1955 29.8858 99.2552 32.9456 102.908 32.9456C106.511 32.9456 109.342 29.8858 109.342 25.6847Z" fill="#4285F4"/>
<path d="M122.283 1.63037V36.9565H117.12V1.63037H122.283Z" fill="#34A853"/>
<path d="M142.402 29.6087L146.511 32.3479C145.185 34.3098 141.989 37.6903 136.467 37.6903C129.619 37.6903 124.505 32.3968 124.505 25.6359C124.505 18.4674 129.663 13.5815 135.875 13.5815C142.13 13.5815 145.19 18.5598 146.19 21.25L146.739 22.6196L130.625 29.2935C131.859 31.712 133.777 32.9457 136.467 32.9457C139.163 32.9457 141.032 31.6196 142.402 29.6087ZM129.755 25.2718L140.527 20.7989C139.935 19.2935 138.152 18.2446 136.054 18.2446C133.364 18.2446 129.619 20.6196 129.755 25.2718Z" fill="#EA4335"/>
<path d="M19.1793 22.5054V17.3912H36.4132C36.5816 18.2825 36.6684 19.3369 36.6684 20.4782C36.6684 24.3151 35.6194 29.0597 32.2391 32.4401C28.951 35.8641 24.75 37.6901 19.1848 37.6901C8.86952 37.6901 0.195618 29.288 0.195618 18.9728C0.195618 8.65754 8.86952 0.255371 19.1848 0.255371C24.8913 0.255371 28.9565 2.4945 32.0108 5.413L28.4022 9.02168C26.2119 6.96734 23.2445 5.36949 19.1793 5.36949C11.6467 5.36949 5.75542 11.4401 5.75542 18.9728C5.75542 26.5054 11.6467 32.576 19.1793 32.576C24.0652 32.576 26.8478 30.6141 28.6304 28.8315C30.076 27.3858 31.0272 25.3206 31.4022 22.4999L19.1793 22.5054Z" fill="#4285F4"/>
</svg>
