<svg width="235" height="50" viewBox="0 0 235 50" fill="none" xmlns="http://www.w3.org/2000/svg">
<path d="M82.6358 28.7983L81.2403 32.7518H81.124C80.8913 31.8603 80.4653 30.5037 79.7674 28.8758L72.2868 10.0773H64.9611V40.0386H69.8063V21.5502C69.8063 20.3874 69.8063 19.0696 69.7674 17.4417C69.7288 16.6277 69.651 16.0076 69.6125 15.5425H69.7288C69.9611 16.7052 70.2327 17.558 70.4264 18.1006L79.4188 39.9612H82.8295L91.7441 17.9068C91.9379 17.4029 92.132 16.3952 92.3257 15.5425H92.442C92.3257 17.7518 92.2479 19.7285 92.2094 20.9301V39.9223H97.3642V9.99983H90.3101L82.6358 28.7983ZM102.248 18.4495H107.287V39.9223H102.248V18.4495ZM104.806 9.37966C103.953 9.37966 103.256 9.68976 102.674 10.2324C102.093 10.775 101.783 11.4727 101.783 12.3254C101.783 13.1393 102.093 13.837 102.674 14.3797C103.256 14.9223 103.953 15.1936 104.806 15.1936C105.659 15.1936 106.395 14.8835 106.938 14.3797C107.519 13.837 107.83 13.1393 107.83 12.3254C107.83 11.5115 107.519 10.8138 106.938 10.2324C106.434 9.68976 105.698 9.37966 104.806 9.37966ZM125.155 18.2556C124.225 18.0618 123.256 17.9456 122.326 17.9456C120.039 17.9456 117.946 18.4495 116.201 19.4572C114.457 20.4649 113.062 21.8603 112.17 23.6045C111.24 25.3874 110.775 27.4417 110.775 29.806C110.775 31.8603 111.24 33.682 112.132 35.3487C113.023 36.9765 114.264 38.2945 115.93 39.1858C117.519 40.0775 119.38 40.5424 121.473 40.5424C123.876 40.5424 125.93 40.0386 127.558 39.1084L127.597 39.0695V34.4184L127.403 34.5735C126.667 35.116 125.814 35.5813 124.961 35.8525C124.07 36.1626 123.256 36.3178 122.558 36.3178C120.543 36.3178 118.953 35.7362 117.83 34.4572C116.667 33.2169 116.085 31.5115 116.085 29.3797C116.085 27.1704 116.667 25.4262 117.868 24.1471C119.07 22.868 120.659 22.2091 122.597 22.2091C124.225 22.2091 125.891 22.7518 127.403 23.8371L127.597 23.9921V19.0696L127.558 19.0308C126.899 18.7595 126.163 18.4495 125.155 18.2556ZM141.783 18.1006C140.543 18.1006 139.38 18.4882 138.372 19.3022C137.519 19.9998 136.938 21.0076 136.434 22.2091H136.395V18.4495H131.357V39.9223H136.395V28.9533C136.395 27.0929 136.783 25.5425 137.636 24.4184C138.489 23.2556 139.574 22.6742 140.891 22.6742C141.357 22.6742 141.822 22.7905 142.403 22.8681C142.946 23.0231 143.333 23.1781 143.605 23.3719L143.799 23.5269V18.4882L143.682 18.4495C143.333 18.2169 142.636 18.1006 141.783 18.1006ZM155.504 17.9843C151.977 17.9843 149.147 19.0308 147.171 21.0851C145.155 23.1394 144.186 25.9688 144.186 29.5347C144.186 32.8681 145.194 35.5813 147.132 37.5581C149.07 39.4959 151.706 40.5035 155 40.5035C158.45 40.5035 161.201 39.457 163.178 37.3643C165.194 35.2713 166.163 32.4805 166.163 29.0308C166.163 25.62 165.233 22.9068 163.333 20.9301C161.512 18.9533 158.837 17.9843 155.504 17.9843ZM159.535 34.4959C158.605 35.6976 157.132 36.2789 155.31 36.2789C153.489 36.2789 152.016 35.6976 150.969 34.4184C149.923 33.2169 149.419 31.4727 149.419 29.2634C149.419 26.9766 149.961 25.2324 150.969 23.9921C152.016 22.7518 153.45 22.1316 155.271 22.1316C157.054 22.1316 158.45 22.713 159.457 23.9146C160.465 25.1161 161.008 26.8603 161.008 29.1471C160.93 31.4727 160.504 33.2944 159.535 34.4959ZM177.403 27.3642C175.814 26.7052 174.806 26.2014 174.341 25.775C173.953 25.3874 173.76 24.8448 173.76 24.1471C173.76 23.5657 173.992 22.9843 174.574 22.5967C175.155 22.2091 175.814 22.0153 176.783 22.0153C177.636 22.0153 178.527 22.1704 179.38 22.4029C180.233 22.6355 181.008 22.9843 181.628 23.4495L181.822 23.6045V18.8758L181.706 18.837C181.124 18.6045 180.349 18.3719 179.419 18.1781C178.489 18.0231 177.636 17.9456 176.938 17.9456C174.535 17.9456 172.558 18.5269 171.008 19.806C169.457 21.0076 168.721 22.6355 168.721 24.5347C168.721 25.5425 168.876 26.4339 169.225 27.1704C169.574 27.9068 170.077 28.6045 170.775 29.1859C171.473 29.7285 172.481 30.3487 173.876 30.9301C175.039 31.4339 175.93 31.8215 176.473 32.1316C177.016 32.4417 177.364 32.7905 177.636 33.0618C177.83 33.3719 177.946 33.7595 177.946 34.2634C177.946 35.6976 176.86 36.3952 174.651 36.3952C173.799 36.3952 172.907 36.24 171.86 35.8914C170.814 35.5424 169.845 35.0386 169.031 34.4572L168.837 34.3022V39.2247L168.953 39.2633C169.69 39.6122 170.581 39.8449 171.667 40.116C172.752 40.3098 173.721 40.465 174.574 40.465C177.171 40.465 179.302 39.8834 180.814 38.6046C182.364 37.3643 183.178 35.7751 183.178 33.7208C183.178 32.2866 182.791 31.0076 181.938 30.0386C180.814 29.1083 179.419 28.1393 177.403 27.3642ZM196.473 17.9843C192.946 17.9843 190.116 19.0308 188.14 21.0851C186.163 23.1394 185.155 25.9688 185.155 29.5347C185.155 32.8681 186.163 35.5813 188.101 37.5581C190.039 39.4959 192.674 40.5035 195.969 40.5035C199.419 40.5035 202.17 39.457 204.147 37.3643C206.163 35.2713 207.132 32.4805 207.132 29.0308C207.132 25.62 206.201 22.9068 204.302 20.9301C202.481 18.9533 199.806 17.9843 196.473 17.9843ZM200.465 34.4959C199.535 35.6976 198.062 36.2789 196.24 36.2789C194.38 36.2789 192.946 35.6976 191.899 34.4184C190.853 33.2169 190.349 31.4727 190.349 29.2634C190.349 26.9766 190.891 25.2324 191.899 23.9921C192.946 22.7518 194.38 22.1316 196.201 22.1316C197.946 22.1316 199.38 22.713 200.388 23.9146C201.395 25.1161 201.938 26.8603 201.938 29.1471C201.938 31.4727 201.434 33.2944 200.465 34.4959ZM234.07 22.5967V18.4495H228.992V12.0929L228.837 12.1316L224.031 13.5657L223.915 13.6045V18.4495H216.318V15.7363C216.318 14.4959 216.628 13.527 217.17 12.9068C217.713 12.2866 218.527 11.9766 219.535 11.9766C220.233 11.9766 220.969 12.1316 221.783 12.4805L221.977 12.5967V8.21688L221.86 8.17813C221.163 7.94556 220.233 7.79053 219.031 7.79053C217.519 7.79053 216.201 8.13938 215 8.72077C213.799 9.37966 212.907 10.2712 212.248 11.4727C211.589 12.6355 211.24 13.9533 211.24 15.4649V18.4495H207.713V22.558H211.24V39.9223H216.318V22.5967H223.915V33.6432C223.915 38.1782 226.047 40.465 230.31 40.465C231.008 40.465 231.744 40.3487 232.442 40.2324C233.178 40.0775 233.721 39.8834 234.031 39.7285L234.07 39.6897V35.5424L233.876 35.6976C233.566 35.8914 233.294 36.0463 232.83 36.1626C232.442 36.2789 232.093 36.3178 231.822 36.3178C230.814 36.3178 230.116 36.0851 229.613 35.5035C229.147 34.9612 228.915 34.0696 228.915 32.7518V22.5967H234.07Z" fill="#737373"/>
<path d="M0 0H23.7597V23.7597H0V0Z" fill="#F25022"/>
<path d="M26.2404 0H50V23.7597H26.2404V0Z" fill="#7FBA00"/>
<path d="M0 26.2407H23.7597V50.0003H0V26.2407Z" fill="#00A4EF"/>
<path d="M26.2404 26.2407H50V50.0003H26.2404V26.2407Z" fill="#FFB900"/>
</svg>
