<svg width="199" height="50" viewBox="0 0 199 50" fill="none" xmlns="http://www.w3.org/2000/svg">
<path d="M64.191 19.5524C64.191 15.9862 60.7229 12.1987 54.7222 12.1987C47.9833 12.1987 40.5806 17.1422 39.449 27.0044C38.2931 36.9649 44.491 41.392 50.7379 41.392C56.9847 41.392 60.2559 38.9573 63.6007 35.7108C60.7229 32.0954 57.0094 33.7678 56.2962 34.1367C55.509 34.5302 54.5007 35.0712 52.4347 35.0712C50.0247 35.0712 47.5653 33.9892 47.5653 29.4884C63.0104 27.9636 64.191 23.1185 64.191 19.5524ZM56.542 20.1426C56.4438 21.2494 56.001 23.1431 48.1799 24.2007C49.8278 18.3473 52.976 17.9046 54.4271 17.9046C55.7795 17.9046 56.6403 18.9621 56.542 20.1426ZM30.3738 21.1018C30.3738 21.1018 27.0536 31.5298 26.7831 32.3906C26.6847 31.5052 24.2499 12.789 24.2499 12.789C18.5932 12.789 15.5681 16.8224 13.9695 21.0772C13.9695 21.0772 9.93604 31.5298 9.59174 32.4151C9.56715 31.6035 8.97688 21.2002 8.97688 21.2002C8.63257 15.9862 3.86128 12.8136 0 12.8136L4.67288 41.1708C10.6001 41.1462 13.7974 37.1371 15.4698 32.8824C15.4698 32.8824 19.0359 23.6596 19.1835 23.2415C19.2081 23.635 21.7413 41.1708 21.7413 41.1708C27.6931 41.1708 30.8903 37.4076 32.6119 33.3005L40.9493 12.8136C35.0712 12.8136 31.9725 16.8224 30.3738 21.1018ZM86.0306 12.1495C82.366 12.1495 79.5622 14.1417 77.201 17.0684V17.0438L79.3163 0C74.4465 0 70.4868 4.23021 69.7247 10.5263L66.0354 40.9493C68.8392 40.9493 71.8149 40.1378 73.4135 38.0719C74.8403 39.9163 76.9799 41.392 80.1524 41.392C88.367 41.392 93.999 31.8495 93.999 22.8972C93.95 14.7319 89.9903 12.1495 86.0306 12.1495ZM85.2681 26.7831C84.4073 31.7757 81.6281 35.1698 78.9472 35.1698C76.242 35.1698 75.0861 33.9646 75.0861 33.9646C75.6024 29.5868 75.9222 26.906 76.9059 24.5942C77.8899 22.2823 80.2264 18.5932 82.6611 18.5932C85.0469 18.5932 86.1288 21.7659 85.2681 26.7831ZM114.51 12.8136H108.78L108.805 12.5184C109.198 8.78014 110.084 6.8126 113.01 6.49288C115.002 6.29611 115.888 5.26316 116.109 4.13184C116.281 3.24643 116.823 0.172159 116.823 0.172159C105.313 0.0983767 101.697 5.06639 100.763 12.6414L100.738 12.8136H100.615C98.7458 12.8136 96.6799 14.9287 96.3354 17.6094L96.2125 18.5932H100.049L96.8274 45.2042L95.8438 49.9753C95.9667 49.9753 96.1142 50 96.2372 50C101.623 49.8031 105.066 45.5486 105.829 39.3753L108.338 18.5932H110.133C111.903 18.5932 113.969 16.8224 114.339 13.8711L114.51 12.8136ZM144.319 12.3217C137.703 12.3217 131.456 17.1914 129.538 24.8401C127.619 32.4889 130.522 41.5396 140.261 41.5396C149.975 41.5396 155.583 32.12 155.583 24.2745C155.583 16.4781 150.295 12.3217 144.319 12.3217ZM147 26.5372C146.655 30.0049 145.13 35.2681 140.949 35.2681C136.744 35.2681 137.334 29.1195 137.752 26.1928C138.195 23.0693 139.941 18.6178 143.704 18.6178C147.073 18.6178 147.393 22.6267 147 26.5372ZM188.268 21.1018C188.268 21.1018 184.948 31.5298 184.678 32.3906C184.58 31.5052 182.144 12.789 182.144 12.789C176.488 12.789 173.463 16.8224 171.864 21.0772C171.864 21.0772 167.831 31.5298 167.486 32.4151C167.462 31.6035 166.872 21.2002 166.872 21.2002C166.527 15.9862 161.756 12.8136 157.895 12.8136L162.543 41.1708C168.47 41.1462 171.667 37.1371 173.34 32.8824C173.34 32.8824 176.906 23.6596 177.029 23.2415C177.078 23.635 179.587 41.1708 179.587 41.1708C185.539 41.1708 188.736 37.4076 190.457 33.3005L198.795 12.8136C192.941 12.8136 189.843 16.8224 188.268 21.1018ZM119.921 0.172159L115.101 39.0556L114.117 43.8514C114.24 43.8514 114.388 43.876 114.51 43.876C119.7 43.8024 123.389 39.2524 124.078 33.5219L126.857 11.215C127.693 4.40236 123.635 0.172159 119.921 0.172159Z" fill="#4353FF"/>
</svg>
