<svg width="42" height="42" viewBox="0 0 42 42" fill="none" xmlns="http://www.w3.org/2000/svg">
<circle cx="21" cy="21" r="21" fill="url(#paint0_linear_24_13)"/>
<path d="M29.6191 19.8312L15.4852 12.7642C15.2945 12.6759 15.0847 12.6366 14.875 12.65C14.6653 12.6634 14.4623 12.7291 14.2844 12.841C14.1066 12.9529 13.9595 13.1076 13.8567 13.2908C13.7538 13.4741 13.6985 13.6802 13.6956 13.8903V28.0181C13.6938 28.2338 13.7477 28.4463 13.8521 28.6351C13.9564 28.8239 14.1077 28.9825 14.2913 29.0958C14.4749 29.209 14.6846 29.2729 14.9001 29.2814C15.1157 29.2899 15.3298 29.2426 15.5217 29.1442L29.6191 22.0772C29.8279 21.9724 30.0035 21.8116 30.1262 21.6127C30.2488 21.4139 30.3138 21.1848 30.3138 20.9512C30.3138 20.7175 30.2488 20.4884 30.1262 20.2896C30.0035 20.0907 29.8279 19.9299 29.6191 19.8251V19.8312Z" fill="white"/>
<defs>
<linearGradient id="paint0_linear_24_13" x1="11.7049" y1="13.082" x2="25.9918" y2="29.0902" gradientUnits="userSpaceOnUse">
<stop stop-color="#FEA303"/>
<stop offset="1" stop-color="#FEF603"/>
</linearGradient>
</defs>
</svg>
