<svg width="25" height="42" viewBox="0 0 25 42" fill="none" xmlns="http://www.w3.org/2000/svg">
<path d="M19.6417 21.0671C17.6724 22.7734 15.1886 23.7713 12.5863 23.9018C9.98388 24.0324 7.41272 23.2879 5.28262 21.7873C3.15252 20.2866 1.58611 18.116 0.833058 15.6216C0.0800099 13.1271 0.183682 10.4524 1.12755 8.02368C2.07142 5.59501 3.80114 3.5522 6.04101 2.2209C8.28087 0.889592 10.9019 0.346428 13.4864 0.677982C16.0709 1.00954 18.4699 2.19673 20.3012 4.05031C22.1325 5.90389 23.2906 8.31716 23.5908 10.9054C24.6292 16.1846 24.6175 22.4759 22.2375 28.1138C19.7233 34.0638 14.6512 39.0805 5.99166 41.3467C5.71279 41.4225 5.42166 41.4424 5.13508 41.4051C4.8485 41.3677 4.57216 41.274 4.32202 41.1292C4.07188 40.9845 3.8529 40.7916 3.67773 40.5618C3.50256 40.3319 3.37467 40.0696 3.30146 39.7901C3.22824 39.5105 3.21115 39.2192 3.25116 38.933C3.29118 38.6468 3.38751 38.3713 3.5346 38.1225C3.68168 37.8738 3.87661 37.6566 4.1081 37.4836C4.3396 37.3106 4.60308 37.1852 4.88333 37.1146C12.2654 35.1809 16.235 31.0771 18.2067 26.4104C18.9178 24.7002 19.4003 22.9036 19.6417 21.0671V21.0671Z" fill="white"/>
</svg>
